<?xml version="1.0" standalone="no"?>
<!DOCTYPE svg PUBLIC "-//W3C//DTD SVG 20010904//EN"
 "http://www.w3.org/TR/2001/REC-SVG-20010904/DTD/svg10.dtd">
<svg version="1.0" xmlns="http://www.w3.org/2000/svg"
 width="240.000000pt" height="240.000000pt" viewBox="0 0 240.000000 240.000000"
 preserveAspectRatio="xMidYMid meet">
<metadata>
Created by potrace 1.11, written by Peter Selinger 2001-2013
</metadata>
<g transform="translate(0.000000,240.000000) scale(0.100000,-0.100000)"
fill="#000000" stroke="none">
<path d="M1194 2232 c-9 -40 -28 -82 -36 -82 -5 0 -7 -3 -6 -7 1 -5 -3 -18
-10 -30 -7 -13 -10 -23 -8 -23 3 0 -5 -12 -19 -27 -51 -59 -85 -101 -85 -106
0 -3 -15 -21 -32 -40 -108 -114 -151 -170 -141 -181 3 -3 1 -6 -6 -6 -8 0 -11
-7 -7 -15 3 -8 1 -15 -5 -15 -6 0 -7 -5 -4 -10 4 -6 -1 -22 -9 -35 -9 -14 -13
-25 -8 -25 5 0 9 -15 9 -32 0 -18 4 -44 8 -58 3 -14 7 -31 7 -37 1 -7 5 -13
10 -13 4 0 7 -3 6 -7 -2 -5 6 -22 17 -40 32 -54 67 -55 60 -3 -2 17 2 36 9 43
13 13 16 20 16 38 0 5 5 7 10 4 6 -3 10 0 10 7 1 17 35 58 49 58 6 0 11 7 11
15 0 8 7 15 16 15 8 0 13 4 9 9 -3 6 20 35 51 65 31 31 53 56 49 56 -4 0 10
17 31 39 79 78 117 136 120 181 0 8 4 27 8 42 4 15 4 33 0 40 -4 6 -9 21 -10
33 -3 30 -8 49 -14 55 -3 3 -18 30 -33 60 -30 64 -63 78 -73 32z"/>
<path d="M1377 2013 c-2 -5 -3 -19 -2 -33 1 -14 -2 -28 -6 -31 -5 -3 -10 -17
-11 -32 -1 -15 -6 -27 -10 -27 -4 0 -8 -5 -8 -11 0 -6 -16 -25 -35 -43 -19
-19 -35 -37 -35 -41 0 -5 -20 -29 -44 -54 -105 -108 -146 -154 -146 -160 0 -4
-18 -25 -40 -47 -22 -21 -47 -52 -55 -68 -17 -33 -20 -122 -5 -131 6 -4 8 -10
6 -14 -3 -4 6 -19 20 -34 14 -15 22 -27 17 -27 -10 0 30 -29 41 -30 4 0 6 9 3
20 -3 10 -1 20 3 22 5 2 10 12 12 23 1 11 6 22 10 25 3 3 8 11 10 19 2 7 47
57 101 110 53 53 97 100 97 103 0 4 23 31 51 60 54 56 105 150 93 169 -5 8 -3
9 5 4 9 -5 12 0 11 16 -1 13 -1 26 -1 29 7 19 6 80 -1 80 -4 0 -8 10 -8 22 0
11 -11 36 -26 55 -25 33 -39 40 -47 26z"/>
<path d="M1525 1839 c-4 -6 -4 -13 -1 -16 3 -3 2 -11 -3 -17 -5 -6 -11 -27
-12 -46 -5 -49 -66 -138 -84 -122 -5 4 -5 1 -1 -6 8 -14 -2 -26 -177 -207 -94
-97 -131 -147 -120 -159 3 -3 2 -11 -4 -18 -10 -14 -10 -24 0 -48 4 -8 8 -25
10 -37 2 -12 6 -26 10 -29 4 -4 7 -14 7 -22 0 -7 10 -28 22 -45 13 -18 21 -34
19 -37 -3 -3 3 -6 12 -8 11 -2 21 6 27 23 9 24 109 126 275 280 69 64 94 95
133 165 8 14 15 52 15 85 1 33 7 63 12 67 6 5 3 8 -7 8 -11 0 -15 6 -11 20 3
12 0 20 -6 20 -7 0 -10 4 -7 9 4 5 3 11 -1 13 -5 1 -16 19 -25 38 -29 57 -59
100 -72 100 -3 0 -8 -5 -11 -11z"/>
<path d="M565 1427 c-16 -18 -34 -86 -25 -92 10 -6 8 -24 -4 -44 -5 -7 -5 -16
0 -20 5 -3 9 -15 10 -26 1 -12 18 -54 39 -95 21 -41 43 -85 49 -97 6 -12 20
-27 31 -33 11 -6 31 -26 45 -45 14 -18 41 -44 60 -57 18 -12 45 -33 58 -45 14
-13 31 -23 38 -23 8 0 14 -3 14 -8 0 -4 12 -13 28 -19 30 -14 66 -44 160 -134
35 -34 66 -59 69 -56 10 10 8 77 -2 77 -7 0 -7 3 0 8 14 10 17 32 5 32 -6 0
-6 10 1 27 5 14 6 29 2 32 -5 3 -8 13 -8 21 1 8 -4 30 -11 48 -7 18 -13 33
-12 35 1 1 -10 20 -24 42 -28 44 -78 92 -127 121 -17 10 -31 22 -31 26 0 4 -7
8 -15 8 -7 0 -19 8 -24 18 -6 9 -11 13 -11 8 0 -6 -13 3 -30 19 -16 16 -30 26
-30 22 0 -20 -198 180 -220 222 -23 46 -21 45 -35 28z"/>
<path d="M1809 1429 c-8 -5 -11 -9 -6 -9 12 0 -22 -60 -34 -60 -6 0 -8 -4 -5
-9 6 -8 -59 -78 -68 -74 -3 1 -20 -12 -38 -30 -19 -18 -48 -43 -66 -57 -18
-14 -39 -31 -47 -37 -7 -7 -17 -13 -21 -13 -3 0 -15 -9 -25 -21 -9 -11 -20
-20 -23 -20 -20 3 -26 0 -21 -9 6 -9 -7 -14 -21 -7 -3 1 -10 -6 -15 -15 -6
-10 -15 -18 -22 -18 -7 0 -28 -19 -47 -41 -19 -23 -42 -50 -52 -60 -9 -9 -14
-20 -11 -23 4 -3 2 -6 -3 -6 -5 0 -10 -8 -11 -17 0 -10 -4 -29 -8 -43 -4 -14
-9 -39 -10 -57 -2 -17 -6 -36 -10 -42 -3 -6 -3 -11 2 -11 9 0 8 -94 -1 -109
-4 -5 2 -9 11 -8 16 2 99 77 86 77 -3 0 12 14 33 30 22 17 47 37 57 45 9 8 17
12 17 9 0 -3 6 1 14 9 8 7 38 29 68 48 29 18 55 36 58 40 3 3 15 11 28 18 12
6 22 19 22 27 0 8 4 13 8 10 20 -12 163 160 154 187 -1 4 2 7 7 7 10 0 23 34
25 66 1 12 6 28 12 35 6 8 9 43 8 79 -1 74 -22 124 -45 109z"/>
<path d="M467 1174 c3 -7 1 -14 -4 -14 -5 0 -10 -17 -10 -37 -1 -21 -4 -66 -6
-101 -3 -34 -1 -65 4 -67 4 -3 6 -15 4 -27 -3 -11 -1 -26 3 -32 3 -6 8 -22 10
-34 3 -25 49 -105 63 -110 5 -2 9 -9 9 -15 0 -13 109 -123 119 -121 3 1 16 -9
28 -22 12 -13 25 -24 29 -24 4 0 21 -11 38 -24 17 -13 41 -26 54 -30 12 -4 22
-11 22 -15 0 -4 16 -13 35 -21 19 -7 32 -17 29 -22 -3 -4 3 -8 14 -8 10 0 27
-9 37 -20 10 -11 26 -20 37 -20 10 0 18 -4 18 -10 0 -5 6 -10 13 -10 8 0 27
-11 43 -25 16 -14 33 -25 38 -25 5 0 15 -8 22 -17 9 -12 13 -14 14 -5 0 7 3
11 8 9 4 -3 7 10 7 29 0 19 -4 34 -9 34 -5 0 -3 6 3 14 8 10 9 16 1 21 -5 3
-10 19 -10 36 0 16 -5 29 -11 29 -5 0 -8 4 -4 9 7 12 -24 80 -50 107 -11 12
-27 30 -36 40 -9 11 -26 26 -37 34 -12 8 -22 19 -22 25 0 5 -12 16 -27 22 -16
7 -40 24 -55 38 -16 14 -28 24 -28 21 0 -5 -64 34 -87 54 -7 5 -17 10 -23 10
-5 0 -10 3 -10 8 -1 4 -25 25 -55 47 -30 22 -55 43 -55 46 0 3 -20 28 -45 54
-24 27 -42 51 -40 55 2 4 -4 16 -13 26 -10 10 -19 23 -19 27 -3 22 -26 66 -38
71 -9 3 -12 0 -8 -10z"/>
<path d="M1905 1170 c3 -5 1 -10 -4 -10 -6 0 -10 -4 -8 -9 3 -14 -55 -120 -83
-150 -14 -15 -32 -37 -40 -49 -8 -12 -18 -22 -22 -22 -8 0 -45 -29 -80 -62
-10 -10 -25 -18 -33 -18 -8 0 -15 -4 -15 -9 0 -5 -8 -12 -17 -15 -10 -3 -30
-17 -44 -30 -15 -14 -30 -22 -33 -19 -3 4 -6 1 -6 -5 0 -7 -7 -12 -15 -12 -8
0 -15 -5 -15 -11 0 -5 -4 -8 -9 -5 -5 3 -11 -1 -15 -9 -3 -8 -10 -15 -15 -15
-6 0 -24 -13 -41 -30 -17 -16 -35 -30 -40 -30 -4 0 -19 -17 -31 -37 -13 -21
-26 -40 -29 -43 -6 -5 -16 -26 -20 -45 -1 -5 -6 -16 -12 -23 -13 -15 -18 -43
-25 -136 l-5 -69 31 22 c17 12 31 19 31 14 0 -4 5 0 11 10 5 9 18 17 28 17 11
0 21 7 25 15 3 8 12 15 21 15 8 0 15 5 15 12 0 6 3 8 6 5 4 -3 18 3 32 13 13
11 31 20 38 20 8 0 14 5 14 11 0 5 5 7 10 4 6 -3 10 -1 10 4 0 6 7 11 15 11 8
0 15 5 15 10 0 6 4 10 10 10 5 0 34 16 64 35 30 19 60 35 66 35 5 0 10 7 10
15 0 8 7 15 15 15 9 0 18 7 21 15 4 8 9 13 13 11 3 -2 20 14 36 35 17 21 36
38 43 39 6 0 12 3 12 8 0 6 16 27 60 79 5 7 10 16 10 22 0 5 9 30 20 55 11 28
15 46 8 46 -7 0 -6 5 2 15 7 8 10 22 6 30 -3 8 -1 15 5 15 6 0 6 7 -1 20 -8
14 -8 20 0 20 8 0 8 6 0 20 -6 11 -7 20 -2 20 5 0 7 11 4 25 -2 14 -8 25 -12
25 -5 0 -5 13 0 29 5 19 4 33 -3 40 -14 14 -40 15 -32 1z"/>
<path d="M509 675 c0 -5 -2 -18 -4 -27 -2 -10 2 -18 8 -18 5 0 8 -3 4 -6 -3
-4 0 -19 9 -35 8 -16 14 -32 13 -35 0 -3 12 -20 28 -36 15 -17 22 -28 15 -24
-11 7 -11 4 0 -13 7 -12 16 -21 20 -21 5 0 8 -6 8 -13 0 -7 9 -19 20 -27 11
-8 20 -19 20 -25 1 -11 93 -105 104 -105 3 0 15 -8 26 -18 11 -9 29 -25 39
-34 11 -9 22 -13 26 -10 4 4 12 0 18 -8 7 -9 35 -24 62 -34 28 -10 57 -20 65
-23 17 -7 35 -12 68 -18 68 -15 73 -14 83 12 5 15 6 29 2 32 -4 3 -9 13 -11
21 -5 25 -46 80 -59 80 -7 0 -24 11 -39 25 -14 13 -30 22 -35 19 -5 -3 -12 2
-15 10 -3 9 -10 13 -15 10 -5 -3 -9 -1 -9 4 0 4 -17 17 -37 28 -62 33 -86 48
-101 62 -7 6 -19 12 -26 12 -7 0 -21 9 -31 20 -10 11 -20 18 -23 16 -2 -3 -10
0 -18 7 -31 28 -44 37 -50 37 -4 0 -14 7 -23 15 -55 50 -101 86 -101 79 0 -5
-9 5 -20 21 -11 17 -20 26 -21 20z"/>
<path d="M1850 640 c-11 -11 -20 -17 -20 -12 0 4 -11 -5 -24 -20 -13 -16 -28
-28 -35 -28 -6 0 -11 -5 -11 -11 0 -5 -4 -7 -10 -4 -5 3 -10 2 -10 -3 0 -11
-151 -113 -206 -139 -18 -9 -34 -21 -34 -25 0 -5 -4 -6 -10 -3 -5 3 -10 1 -10
-5 0 -6 -4 -9 -9 -6 -4 3 -16 -3 -26 -14 -10 -11 -22 -20 -27 -20 -37 0 -172
-123 -165 -150 2 -10 0 -24 -5 -33 -6 -12 -3 -19 11 -27 23 -12 72 -2 185 37
68 23 176 87 176 105 0 5 5 6 10 3 6 -3 10 -1 10 4 0 6 5 11 10 11 6 0 26 16
46 35 19 19 32 35 29 35 -3 0 4 10 16 23 31 32 84 111 81 120 -1 4 2 7 7 7 5
0 15 16 21 35 6 19 15 35 20 35 5 0 7 9 5 20 -2 11 0 20 5 20 4 0 10 7 14 15
8 22 -20 19 -44 -5z"/>
</g>
</svg>
